<mxfile host="app.diagrams.net" modified="2024-05-13T14:38:20.445Z" agent="Mozilla/5.0 (X11; Linux x86_64; rv:125.0) Gecko/20100101 Firefox/125.0" etag="8TrLakqlHpdM35IVpT6M" version="24.4.0" type="github">
  <diagram name="Page-1" id="wGf5R7sx8XBUqBo0aK0b">
    <mxGraphModel dx="2607" dy="1438" grid="1" gridSize="10" guides="1" tooltips="1" connect="1" arrows="1" fold="1" page="1" pageScale="1" pageWidth="850" pageHeight="1100" math="1" shadow="0">
      <root>
        <mxCell id="0" />
        <mxCell id="1" parent="0" />
        <mxCell id="F3wyyiee0PLoBlBI_Hny-25" value="" style="shape=table;startSize=0;container=1;collapsible=0;childLayout=tableLayout;rounded=1;fontSize=16;" parent="1" vertex="1">
          <mxGeometry x="1100" y="725" width="58" height="190" as="geometry" />
        </mxCell>
        <mxCell id="F3wyyiee0PLoBlBI_Hny-26" value="" style="shape=tableRow;horizontal=0;startSize=0;swimlaneHead=0;swimlaneBody=0;strokeColor=#d6b656;top=0;left=0;bottom=0;right=0;collapsible=0;dropTarget=0;fillColor=none;points=[[0,0.5],[1,0.5]];portConstraint=eastwest;fontSize=17;" parent="F3wyyiee0PLoBlBI_Hny-25" vertex="1">
          <mxGeometry width="58" height="51" as="geometry" />
        </mxCell>
        <mxCell id="F3wyyiee0PLoBlBI_Hny-27" value="$$u_{1,1}$$" style="shape=partialRectangle;html=1;whiteSpace=wrap;connectable=0;overflow=hidden;top=0;left=0;bottom=0;right=0;pointerEvents=1;fontSize=16;strokeWidth=5;fillColor=none;" parent="F3wyyiee0PLoBlBI_Hny-26" vertex="1">
          <mxGeometry width="58" height="51" as="geometry">
            <mxRectangle width="58" height="51" as="alternateBounds" />
          </mxGeometry>
        </mxCell>
        <mxCell id="F3wyyiee0PLoBlBI_Hny-33" value="" style="shape=tableRow;horizontal=0;startSize=0;swimlaneHead=0;swimlaneBody=0;strokeColor=inherit;top=0;left=0;bottom=0;right=0;collapsible=0;dropTarget=0;fillColor=none;points=[[0,0.5],[1,0.5]];portConstraint=eastwest;" parent="F3wyyiee0PLoBlBI_Hny-25" vertex="1">
          <mxGeometry y="51" width="58" height="46" as="geometry" />
        </mxCell>
        <mxCell id="F3wyyiee0PLoBlBI_Hny-34" value="$$u_{2,1}$$" style="shape=partialRectangle;html=1;whiteSpace=wrap;connectable=0;strokeColor=inherit;overflow=hidden;fillColor=none;top=0;left=0;bottom=0;right=0;pointerEvents=1;fontSize=16;" parent="F3wyyiee0PLoBlBI_Hny-33" vertex="1">
          <mxGeometry width="58" height="46" as="geometry">
            <mxRectangle width="58" height="46" as="alternateBounds" />
          </mxGeometry>
        </mxCell>
        <mxCell id="F3wyyiee0PLoBlBI_Hny-40" value="" style="shape=tableRow;horizontal=0;startSize=0;swimlaneHead=0;swimlaneBody=0;strokeColor=inherit;top=0;left=0;bottom=0;right=0;collapsible=0;dropTarget=0;fillColor=none;points=[[0,0.5],[1,0.5]];portConstraint=eastwest;" parent="F3wyyiee0PLoBlBI_Hny-25" vertex="1">
          <mxGeometry y="97" width="58" height="48" as="geometry" />
        </mxCell>
        <mxCell id="F3wyyiee0PLoBlBI_Hny-41" value="$$u_{3,1}$$" style="shape=partialRectangle;html=1;whiteSpace=wrap;connectable=0;strokeColor=inherit;overflow=hidden;fillColor=none;top=0;left=0;bottom=0;right=0;pointerEvents=1;fontSize=16;" parent="F3wyyiee0PLoBlBI_Hny-40" vertex="1">
          <mxGeometry width="58" height="48" as="geometry">
            <mxRectangle width="58" height="48" as="alternateBounds" />
          </mxGeometry>
        </mxCell>
        <mxCell id="F3wyyiee0PLoBlBI_Hny-47" value="" style="shape=tableRow;horizontal=0;startSize=0;swimlaneHead=0;swimlaneBody=0;strokeColor=inherit;top=0;left=0;bottom=0;right=0;collapsible=0;dropTarget=0;fillColor=none;points=[[0,0.5],[1,0.5]];portConstraint=eastwest;" parent="F3wyyiee0PLoBlBI_Hny-25" vertex="1">
          <mxGeometry y="145" width="58" height="45" as="geometry" />
        </mxCell>
        <mxCell id="F3wyyiee0PLoBlBI_Hny-48" value="$$u_{4,1}$$" style="shape=partialRectangle;html=1;whiteSpace=wrap;connectable=0;strokeColor=inherit;overflow=hidden;fillColor=none;top=0;left=0;bottom=0;right=0;pointerEvents=1;fontSize=16;" parent="F3wyyiee0PLoBlBI_Hny-47" vertex="1">
          <mxGeometry width="58" height="45" as="geometry">
            <mxRectangle width="58" height="45" as="alternateBounds" />
          </mxGeometry>
        </mxCell>
        <mxCell id="zw45EAOEBZMLgNeasYMU-108" value="" style="shape=table;startSize=0;container=1;collapsible=0;childLayout=tableLayout;" parent="1" vertex="1">
          <mxGeometry x="790" y="730" width="240" height="190" as="geometry" />
        </mxCell>
        <mxCell id="zw45EAOEBZMLgNeasYMU-109" value="" style="shape=tableRow;horizontal=0;startSize=0;swimlaneHead=0;swimlaneBody=0;strokeColor=inherit;top=0;left=0;bottom=0;right=0;collapsible=0;dropTarget=0;fillColor=none;points=[[0,0.5],[1,0.5]];portConstraint=eastwest;" parent="zw45EAOEBZMLgNeasYMU-108" vertex="1">
          <mxGeometry width="240" height="48" as="geometry" />
        </mxCell>
        <mxCell id="zw45EAOEBZMLgNeasYMU-110" value="" style="shape=partialRectangle;html=1;whiteSpace=wrap;connectable=0;strokeColor=#b85450;overflow=hidden;fillColor=#f8cecc;top=0;left=0;bottom=0;right=0;pointerEvents=1;" parent="zw45EAOEBZMLgNeasYMU-109" vertex="1">
          <mxGeometry width="60" height="48" as="geometry">
            <mxRectangle width="60" height="48" as="alternateBounds" />
          </mxGeometry>
        </mxCell>
        <mxCell id="zw45EAOEBZMLgNeasYMU-111" value="" style="shape=partialRectangle;html=1;whiteSpace=wrap;connectable=0;strokeColor=#666666;overflow=hidden;fillColor=#f5f5f5;top=0;left=0;bottom=0;right=0;pointerEvents=1;fontColor=#333333;" parent="zw45EAOEBZMLgNeasYMU-109" vertex="1">
          <mxGeometry x="60" width="60" height="48" as="geometry">
            <mxRectangle width="60" height="48" as="alternateBounds" />
          </mxGeometry>
        </mxCell>
        <mxCell id="zw45EAOEBZMLgNeasYMU-112" value="" style="shape=partialRectangle;html=1;whiteSpace=wrap;connectable=0;strokeColor=#6c8ebf;overflow=hidden;fillColor=#dae8fc;top=0;left=0;bottom=0;right=0;pointerEvents=1;" parent="zw45EAOEBZMLgNeasYMU-109" vertex="1">
          <mxGeometry x="120" width="60" height="48" as="geometry">
            <mxRectangle width="60" height="48" as="alternateBounds" />
          </mxGeometry>
        </mxCell>
        <mxCell id="zw45EAOEBZMLgNeasYMU-113" value="" style="shape=partialRectangle;html=1;whiteSpace=wrap;connectable=0;strokeColor=#d6b656;overflow=hidden;fillColor=#fff2cc;top=0;left=0;bottom=0;right=0;pointerEvents=1;" parent="zw45EAOEBZMLgNeasYMU-109" vertex="1">
          <mxGeometry x="180" width="60" height="48" as="geometry">
            <mxRectangle width="60" height="48" as="alternateBounds" />
          </mxGeometry>
        </mxCell>
        <mxCell id="zw45EAOEBZMLgNeasYMU-114" value="" style="shape=tableRow;horizontal=0;startSize=0;swimlaneHead=0;swimlaneBody=0;strokeColor=inherit;top=0;left=0;bottom=0;right=0;collapsible=0;dropTarget=0;fillColor=none;points=[[0,0.5],[1,0.5]];portConstraint=eastwest;" parent="zw45EAOEBZMLgNeasYMU-108" vertex="1">
          <mxGeometry y="48" width="240" height="47" as="geometry" />
        </mxCell>
        <mxCell id="zw45EAOEBZMLgNeasYMU-115" value="" style="shape=partialRectangle;html=1;whiteSpace=wrap;connectable=0;strokeColor=#d79b00;overflow=hidden;fillColor=#ffe6cc;top=0;left=0;bottom=0;right=0;pointerEvents=1;" parent="zw45EAOEBZMLgNeasYMU-114" vertex="1">
          <mxGeometry width="60" height="47" as="geometry">
            <mxRectangle width="60" height="47" as="alternateBounds" />
          </mxGeometry>
        </mxCell>
        <mxCell id="zw45EAOEBZMLgNeasYMU-116" value="" style="shape=partialRectangle;html=1;whiteSpace=wrap;connectable=0;strokeColor=#b85450;overflow=hidden;fillColor=#f8cecc;top=0;left=0;bottom=0;right=0;pointerEvents=1;" parent="zw45EAOEBZMLgNeasYMU-114" vertex="1">
          <mxGeometry x="60" width="60" height="47" as="geometry">
            <mxRectangle width="60" height="47" as="alternateBounds" />
          </mxGeometry>
        </mxCell>
        <mxCell id="zw45EAOEBZMLgNeasYMU-117" value="" style="shape=partialRectangle;html=1;whiteSpace=wrap;connectable=0;strokeColor=#666666;overflow=hidden;fillColor=#f5f5f5;top=0;left=0;bottom=0;right=0;pointerEvents=1;fontColor=#333333;" parent="zw45EAOEBZMLgNeasYMU-114" vertex="1">
          <mxGeometry x="120" width="60" height="47" as="geometry">
            <mxRectangle width="60" height="47" as="alternateBounds" />
          </mxGeometry>
        </mxCell>
        <mxCell id="zw45EAOEBZMLgNeasYMU-118" value="" style="shape=partialRectangle;html=1;whiteSpace=wrap;connectable=0;strokeColor=#6c8ebf;overflow=hidden;fillColor=#dae8fc;top=0;left=0;bottom=0;right=0;pointerEvents=1;" parent="zw45EAOEBZMLgNeasYMU-114" vertex="1">
          <mxGeometry x="180" width="60" height="47" as="geometry">
            <mxRectangle width="60" height="47" as="alternateBounds" />
          </mxGeometry>
        </mxCell>
        <mxCell id="zw45EAOEBZMLgNeasYMU-119" value="" style="shape=tableRow;horizontal=0;startSize=0;swimlaneHead=0;swimlaneBody=0;strokeColor=inherit;top=0;left=0;bottom=0;right=0;collapsible=0;dropTarget=0;fillColor=none;points=[[0,0.5],[1,0.5]];portConstraint=eastwest;" parent="zw45EAOEBZMLgNeasYMU-108" vertex="1">
          <mxGeometry y="95" width="240" height="48" as="geometry" />
        </mxCell>
        <mxCell id="zw45EAOEBZMLgNeasYMU-120" value="" style="shape=partialRectangle;html=1;whiteSpace=wrap;connectable=0;strokeColor=#9673a6;overflow=hidden;fillColor=#e1d5e7;top=0;left=0;bottom=0;right=0;pointerEvents=1;" parent="zw45EAOEBZMLgNeasYMU-119" vertex="1">
          <mxGeometry width="60" height="48" as="geometry">
            <mxRectangle width="60" height="48" as="alternateBounds" />
          </mxGeometry>
        </mxCell>
        <mxCell id="zw45EAOEBZMLgNeasYMU-121" value="" style="shape=partialRectangle;html=1;whiteSpace=wrap;connectable=0;strokeColor=#d79b00;overflow=hidden;fillColor=#ffe6cc;top=0;left=0;bottom=0;right=0;pointerEvents=1;" parent="zw45EAOEBZMLgNeasYMU-119" vertex="1">
          <mxGeometry x="60" width="60" height="48" as="geometry">
            <mxRectangle width="60" height="48" as="alternateBounds" />
          </mxGeometry>
        </mxCell>
        <mxCell id="zw45EAOEBZMLgNeasYMU-122" value="" style="shape=partialRectangle;html=1;whiteSpace=wrap;connectable=0;strokeColor=#b85450;overflow=hidden;fillColor=#f8cecc;top=0;left=0;bottom=0;right=0;pointerEvents=1;" parent="zw45EAOEBZMLgNeasYMU-119" vertex="1">
          <mxGeometry x="120" width="60" height="48" as="geometry">
            <mxRectangle width="60" height="48" as="alternateBounds" />
          </mxGeometry>
        </mxCell>
        <mxCell id="zw45EAOEBZMLgNeasYMU-123" value="" style="shape=partialRectangle;html=1;whiteSpace=wrap;connectable=0;strokeColor=#666666;overflow=hidden;fillColor=#f5f5f5;top=0;left=0;bottom=0;right=0;pointerEvents=1;fontColor=#333333;" parent="zw45EAOEBZMLgNeasYMU-119" vertex="1">
          <mxGeometry x="180" width="60" height="48" as="geometry">
            <mxRectangle width="60" height="48" as="alternateBounds" />
          </mxGeometry>
        </mxCell>
        <mxCell id="zw45EAOEBZMLgNeasYMU-124" value="" style="shape=tableRow;horizontal=0;startSize=0;swimlaneHead=0;swimlaneBody=0;strokeColor=inherit;top=0;left=0;bottom=0;right=0;collapsible=0;dropTarget=0;fillColor=none;points=[[0,0.5],[1,0.5]];portConstraint=eastwest;" parent="zw45EAOEBZMLgNeasYMU-108" vertex="1">
          <mxGeometry y="143" width="240" height="47" as="geometry" />
        </mxCell>
        <mxCell id="zw45EAOEBZMLgNeasYMU-125" value="" style="shape=partialRectangle;html=1;whiteSpace=wrap;connectable=0;strokeColor=#82b366;overflow=hidden;fillColor=#d5e8d4;top=0;left=0;bottom=0;right=0;pointerEvents=1;" parent="zw45EAOEBZMLgNeasYMU-124" vertex="1">
          <mxGeometry width="60" height="47" as="geometry">
            <mxRectangle width="60" height="47" as="alternateBounds" />
          </mxGeometry>
        </mxCell>
        <mxCell id="zw45EAOEBZMLgNeasYMU-126" value="" style="shape=partialRectangle;html=1;whiteSpace=wrap;connectable=0;strokeColor=#9673a6;overflow=hidden;fillColor=#e1d5e7;top=0;left=0;bottom=0;right=0;pointerEvents=1;" parent="zw45EAOEBZMLgNeasYMU-124" vertex="1">
          <mxGeometry x="60" width="60" height="47" as="geometry">
            <mxRectangle width="60" height="47" as="alternateBounds" />
          </mxGeometry>
        </mxCell>
        <mxCell id="zw45EAOEBZMLgNeasYMU-127" value="" style="shape=partialRectangle;html=1;whiteSpace=wrap;connectable=0;strokeColor=#d79b00;overflow=hidden;fillColor=#ffe6cc;top=0;left=0;bottom=0;right=0;pointerEvents=1;" parent="zw45EAOEBZMLgNeasYMU-124" vertex="1">
          <mxGeometry x="120" width="60" height="47" as="geometry">
            <mxRectangle width="60" height="47" as="alternateBounds" />
          </mxGeometry>
        </mxCell>
        <mxCell id="zw45EAOEBZMLgNeasYMU-128" value="" style="shape=partialRectangle;html=1;whiteSpace=wrap;connectable=0;strokeColor=#b85450;overflow=hidden;fillColor=#f8cecc;top=0;left=0;bottom=0;right=0;pointerEvents=1;" parent="zw45EAOEBZMLgNeasYMU-124" vertex="1">
          <mxGeometry x="180" width="60" height="47" as="geometry">
            <mxRectangle width="60" height="47" as="alternateBounds" />
          </mxGeometry>
        </mxCell>
        <mxCell id="jxW2ID5ogDvxAvUXrOoW-2" value="" style="shape=waypoint;sketch=0;size=6;pointerEvents=1;points=[];fillColor=none;resizable=0;rotatable=0;perimeter=centerPerimeter;snapToPoint=1;" vertex="1" parent="1">
          <mxGeometry x="1060" y="810" width="20" height="20" as="geometry" />
        </mxCell>
        <mxCell id="jxW2ID5ogDvxAvUXrOoW-22" value="" style="shape=table;startSize=0;container=1;collapsible=0;childLayout=tableLayout;rounded=1;fontSize=16;" vertex="1" parent="1">
          <mxGeometry x="620" y="730" width="58" height="190" as="geometry" />
        </mxCell>
        <mxCell id="jxW2ID5ogDvxAvUXrOoW-23" value="" style="shape=tableRow;horizontal=0;startSize=0;swimlaneHead=0;swimlaneBody=0;strokeColor=#d6b656;top=0;left=0;bottom=0;right=0;collapsible=0;dropTarget=0;fillColor=none;points=[[0,0.5],[1,0.5]];portConstraint=eastwest;fontSize=17;" vertex="1" parent="jxW2ID5ogDvxAvUXrOoW-22">
          <mxGeometry width="58" height="51" as="geometry" />
        </mxCell>
        <mxCell id="jxW2ID5ogDvxAvUXrOoW-24" value="$$x_{1,1}$$" style="shape=partialRectangle;html=1;whiteSpace=wrap;connectable=0;strokeColor=inherit;overflow=hidden;fillColor=none;top=0;left=0;bottom=0;right=0;pointerEvents=1;fontSize=16;" vertex="1" parent="jxW2ID5ogDvxAvUXrOoW-23">
          <mxGeometry width="58" height="51" as="geometry">
            <mxRectangle width="58" height="51" as="alternateBounds" />
          </mxGeometry>
        </mxCell>
        <mxCell id="jxW2ID5ogDvxAvUXrOoW-25" value="" style="shape=tableRow;horizontal=0;startSize=0;swimlaneHead=0;swimlaneBody=0;strokeColor=inherit;top=0;left=0;bottom=0;right=0;collapsible=0;dropTarget=0;fillColor=none;points=[[0,0.5],[1,0.5]];portConstraint=eastwest;" vertex="1" parent="jxW2ID5ogDvxAvUXrOoW-22">
          <mxGeometry y="51" width="58" height="46" as="geometry" />
        </mxCell>
        <mxCell id="jxW2ID5ogDvxAvUXrOoW-26" value="$$x_{2,1}$$" style="shape=partialRectangle;html=1;whiteSpace=wrap;connectable=0;strokeColor=inherit;overflow=hidden;fillColor=none;top=0;left=0;bottom=0;right=0;pointerEvents=1;fontSize=16;" vertex="1" parent="jxW2ID5ogDvxAvUXrOoW-25">
          <mxGeometry width="58" height="46" as="geometry">
            <mxRectangle width="58" height="46" as="alternateBounds" />
          </mxGeometry>
        </mxCell>
        <mxCell id="jxW2ID5ogDvxAvUXrOoW-27" value="" style="shape=tableRow;horizontal=0;startSize=0;swimlaneHead=0;swimlaneBody=0;strokeColor=inherit;top=0;left=0;bottom=0;right=0;collapsible=0;dropTarget=0;fillColor=none;points=[[0,0.5],[1,0.5]];portConstraint=eastwest;" vertex="1" parent="jxW2ID5ogDvxAvUXrOoW-22">
          <mxGeometry y="97" width="58" height="48" as="geometry" />
        </mxCell>
        <mxCell id="jxW2ID5ogDvxAvUXrOoW-28" value="$$x_{3,1}$$" style="shape=partialRectangle;html=1;whiteSpace=wrap;connectable=0;strokeColor=inherit;overflow=hidden;fillColor=none;top=0;left=0;bottom=0;right=0;pointerEvents=1;fontSize=16;" vertex="1" parent="jxW2ID5ogDvxAvUXrOoW-27">
          <mxGeometry width="58" height="48" as="geometry">
            <mxRectangle width="58" height="48" as="alternateBounds" />
          </mxGeometry>
        </mxCell>
        <mxCell id="jxW2ID5ogDvxAvUXrOoW-29" value="" style="shape=tableRow;horizontal=0;startSize=0;swimlaneHead=0;swimlaneBody=0;strokeColor=inherit;top=0;left=0;bottom=0;right=0;collapsible=0;dropTarget=0;fillColor=none;points=[[0,0.5],[1,0.5]];portConstraint=eastwest;" vertex="1" parent="jxW2ID5ogDvxAvUXrOoW-22">
          <mxGeometry y="145" width="58" height="45" as="geometry" />
        </mxCell>
        <mxCell id="jxW2ID5ogDvxAvUXrOoW-30" value="$$x_{4,1}$$" style="shape=partialRectangle;html=1;whiteSpace=wrap;connectable=0;strokeColor=inherit;overflow=hidden;fillColor=none;top=0;left=0;bottom=0;right=0;pointerEvents=1;fontSize=16;" vertex="1" parent="jxW2ID5ogDvxAvUXrOoW-29">
          <mxGeometry width="58" height="45" as="geometry">
            <mxRectangle width="58" height="45" as="alternateBounds" />
          </mxGeometry>
        </mxCell>
        <mxCell id="jxW2ID5ogDvxAvUXrOoW-31" value="" style="ellipse;whiteSpace=wrap;html=1;aspect=fixed;" vertex="1" parent="1">
          <mxGeometry x="708" y="820" width="20" height="20" as="geometry" />
        </mxCell>
        <mxCell id="jxW2ID5ogDvxAvUXrOoW-33" value="$$($$" style="text;html=1;align=center;verticalAlign=middle;resizable=0;points=[];autosize=1;strokeColor=none;fillColor=none;fontSize=60;" vertex="1" parent="1">
          <mxGeometry x="670" y="785" width="180" height="90" as="geometry" />
        </mxCell>
        <mxCell id="jxW2ID5ogDvxAvUXrOoW-35" value="$$)$$" style="text;html=1;align=center;verticalAlign=middle;resizable=0;points=[];autosize=1;strokeColor=none;fillColor=none;fontSize=60;" vertex="1" parent="1">
          <mxGeometry x="1100" y="780" width="180" height="90" as="geometry" />
        </mxCell>
      </root>
    </mxGraphModel>
  </diagram>
</mxfile>
